<svg id="Layer_1" data-name="Layer 1" xmlns="http://www.w3.org/2000/svg" viewBox="0 0 297.91 312.91"><defs><style>.cls-1{fill:#ee4023;}.cls-2{fill:#fff;}</style></defs><title>triangel-graphic design</title><path class="cls-1" d="M215.91,223.49a3,3,0,0,1-2.32.83c-1,.06-16,.08-35.52.08H163.88c.55,6.72,1.18,8.39,1.39,8.77h.17l.1.38a43.3,43.3,0,0,0,5.47,4.62l.17.12,0,.21a1.48,1.48,0,0,1-.37,1.28,2.8,2.8,0,0,1-2,.67H127.44a2,2,0,0,1-1.44-1,1.29,1.29,0,0,1,0-1.07l.11-.16,5.59-5c.35-.65.91-4.86,1.27-8.82-25.28,0-47.24,0-49.38-.06a3.8,3.8,0,0,1-3.66-4V166.09L22.78,259l252.35,0L217,164.43v56.16A4.37,4.37,0,0,1,215.91,223.49Z"/><polygon class="cls-1" points="148.95 53.96 102.52 129.4 195.4 129.4 148.95 53.96"/><path class="cls-1" d="M80.94,133v87.26a2.82,2.82,0,0,0,2.69,3.05c1.25,0,127,.16,130,0a2.08,2.08,0,0,0,1.62-.53,3.43,3.43,0,0,0,.76-2.19V132.86c-.63-2.42-3.31-2.46-3.45-2.46H83.6a2.65,2.65,0,0,0-2,.72A2.81,2.81,0,0,0,80.94,133Zm85,79.18a10.06,10.06,0,0,1-2.81,3.47,11.91,11.91,0,0,1-4,2,16.83,16.83,0,0,1-4.7.66q-5.07,0-7.92-1.87a13,13,0,0,1-4.46-5l1.05-.33a10.39,10.39,0,0,0,4.81,4.65,15.53,15.53,0,0,0,6.52,1.4,15.34,15.34,0,0,0,4.45-.63,10.62,10.62,0,0,0,3.66-1.9,9.09,9.09,0,0,0,2.48-3.11,9.72,9.72,0,0,0,.9-4.32v-7.15a14.33,14.33,0,0,1-2.17,2.62,15.35,15.35,0,0,1-2.69,2.06,12.8,12.8,0,0,1-3.06,1.35,11.48,11.48,0,0,1-3.24.46c-.19,0-.37,0-.56,0v0H121.6v0a12,12,0,0,1-4.57-1.15,13.86,13.86,0,0,1-4.31-3.19,15.53,15.53,0,0,1-2.92-16.06,15.56,15.56,0,0,1,2.94-4.7,14.16,14.16,0,0,1,4.35-3.22,12.16,12.16,0,0,1,10.45,0,13.8,13.8,0,0,1,4.32,3.22,16.38,16.38,0,0,1,2.94,4.7,14.86,14.86,0,0,1,1.1,5.69,15.39,15.39,0,0,1-4,10.37,14,14,0,0,1-4.32,3.19c-.13.07-.26.11-.4.17h22.6l-.58-.25a14,14,0,0,1-4.37-3.36A15.38,15.38,0,0,1,142,197.3a14.87,14.87,0,0,1-1-5.4,16.19,16.19,0,0,1,1-5.52,15.07,15.07,0,0,1,2.72-4.73,13.41,13.41,0,0,1,4.21-3.3,11.65,11.65,0,0,1,5.36-1.24,11.42,11.42,0,0,1,3.61.55,13.3,13.3,0,0,1,3.13,1.51,15.09,15.09,0,0,1,2.67,2.26,25.52,25.52,0,0,1,2.25,2.78v-6.66H167V207.3A10.89,10.89,0,0,1,165.93,212.2Zm46-77.91v72.34H187.71a12.07,12.07,0,0,1-5.28-1.18,14,14,0,0,1-4.32-3.19,15.49,15.49,0,0,1-2.91-16.06,15.18,15.18,0,0,1,2.94-4.7,14,14,0,0,1,4.34-3.22,12.16,12.16,0,0,1,10.45,0,13.8,13.8,0,0,1,4.32,3.22,16,16,0,0,1,2.94,4.7,14.68,14.68,0,0,1,1.1,5.69,15.44,15.44,0,0,1-4,10.37,14,14,0,0,1-4.32,3.19c-.13.07-.27.11-.4.17H210.9V135.29H86v70.34h13.5c-.08-.08-.18-.14-.26-.22a4.49,4.49,0,0,1-1.21-3.28V166.22h1.1v35.91a3.3,3.3,0,0,0,1,2.53,3.66,3.66,0,0,0,2.64.94,9.71,9.71,0,0,0,1.46-.14,10.86,10.86,0,0,0,1.56-.36l.39.88a11,11,0,0,1-1.9.47,11.33,11.33,0,0,1-1.9.19l-.27,0H85V134.29Z"/><path class="cls-2" d="M79.94,220.28a3.8,3.8,0,0,0,3.66,4c2.14,0,24.1,0,49.38.06-.36,4-.92,8.17-1.27,8.82l-5.59,5-.11.16a1.29,1.29,0,0,0,0,1.07,2,2,0,0,0,1.44,1h41.43a2.8,2.8,0,0,0,2-.67,1.48,1.48,0,0,0,.37-1.28l0-.21-.17-.12a43.3,43.3,0,0,1-5.47-4.62l-.1-.38h-.17c-.21-.38-.84-2-1.39-8.77h14.19c19.5,0,34.52,0,35.52-.08a3,3,0,0,0,2.32-.83,4.37,4.37,0,0,0,1.05-2.9V132.68a4.46,4.46,0,0,0-4.45-3.28H83.6a3.56,3.56,0,0,0-2.75,1,3.71,3.71,0,0,0-.91,2.6v87.23ZM83.6,130.4H212.51c.14,0,2.82,0,3.45,2.46V220.6a3.43,3.43,0,0,1-.76,2.19,2.08,2.08,0,0,1-1.62.53c-2.92.17-128.7,0-130,0a2.82,2.82,0,0,1-2.69-3.05V133a2.81,2.81,0,0,1,.64-1.9A2.65,2.65,0,0,1,83.6,130.4Zm81.12,103.67a38.53,38.53,0,0,0,5.5,4.74.46.46,0,0,1-.12.28,2.11,2.11,0,0,1-1.39.34H127.64a1.09,1.09,0,0,1-.72-.42.34.34,0,0,1,0-.16l5.4-4.83c.34-.21.94-1.22,1.69-9.62h28.9C163.49,232.06,164.23,233.72,164.72,234.07Z"/><path class="cls-1" d="M192.47,204.44a13.13,13.13,0,0,0,4-3,13.75,13.75,0,0,0,2.72-4.34,14.08,14.08,0,0,0,1-5.28,13.89,13.89,0,0,0-1-5.22,14.28,14.28,0,0,0-2.69-4.35,12.93,12.93,0,0,0-4-3,11.07,11.07,0,0,0-9.62,0,12.49,12.49,0,0,0-4,3,14.51,14.51,0,0,0-3.69,9.7,13.94,13.94,0,0,0,1,5.23,14.16,14.16,0,0,0,2.67,4.32,12.5,12.5,0,0,0,3.93,2.91,11.09,11.09,0,0,0,4.84,1.08A10.91,10.91,0,0,0,192.47,204.44Z"/><path class="cls-1" d="M165.87,186.51a11.42,11.42,0,0,0-1.89-3.32,14.56,14.56,0,0,0-2.78-2.61,13.07,13.07,0,0,0-3.36-1.74,11,11,0,0,0-3.63-.63,10.54,10.54,0,0,0-5.17,1.24,12.22,12.22,0,0,0-3.79,3.19,14.48,14.48,0,0,0-2.37,4.4,15.12,15.12,0,0,0-.82,4.86,13.6,13.6,0,0,0,1,5.15,14.73,14.73,0,0,0,2.69,4.34,13,13,0,0,0,4,3,11.16,11.16,0,0,0,5,1.13,10.56,10.56,0,0,0,4-.8,13.37,13.37,0,0,0,3.49-2.07,12.72,12.72,0,0,0,2.56-2.8,6.44,6.44,0,0,0,1.12-3.08Z"/><path class="cls-1" d="M127.07,204.44a13.29,13.29,0,0,0,4-3,13.93,13.93,0,0,0,2.72-4.34,14.08,14.08,0,0,0,1-5.28,13.89,13.89,0,0,0-1-5.22,14.12,14.12,0,0,0-2.7-4.35,12.77,12.77,0,0,0-4-3,11.09,11.09,0,0,0-9.63,0,12.71,12.71,0,0,0-4,3,14.53,14.53,0,0,0-2.69,4.4,14.26,14.26,0,0,0-1,5.3,13.94,13.94,0,0,0,1,5.23,14.16,14.16,0,0,0,2.67,4.32,12.28,12.28,0,0,0,3.93,2.91,11,11,0,0,0,4.84,1.08A10.87,10.87,0,0,0,127.07,204.44Z"/><path class="cls-1" d="M134,224.4c-.75,8.4-1.35,9.41-1.69,9.62l-5.4,4.83a.34.34,0,0,0,0,.16,1.09,1.09,0,0,0,.72.42h41.07a2.11,2.11,0,0,0,1.39-.34.46.46,0,0,0,.12-.28,38.53,38.53,0,0,1-5.5-4.74c-.49-.35-1.23-2-1.84-9.67Z"/><path class="cls-2" d="M167,177.55h-1.1v6.66a25.52,25.52,0,0,0-2.25-2.78,15.09,15.09,0,0,0-2.67-2.26,13.3,13.3,0,0,0-3.13-1.51,11.42,11.42,0,0,0-3.61-.55,11.65,11.65,0,0,0-5.36,1.24,13.41,13.41,0,0,0-4.21,3.3,15.07,15.07,0,0,0-2.72,4.73,16.19,16.19,0,0,0-1,5.52,14.87,14.87,0,0,0,1,5.4,15.38,15.38,0,0,0,2.86,4.72,14,14,0,0,0,4.37,3.36l.58.25h-22.6c.14-.06.27-.1.4-.17a14,14,0,0,0,4.32-3.19,15.39,15.39,0,0,0,4-10.37,14.86,14.86,0,0,0-1.1-5.69,16.38,16.38,0,0,0-2.94-4.7,13.8,13.8,0,0,0-4.32-3.22,12.16,12.16,0,0,0-10.45,0,14.16,14.16,0,0,0-4.35,3.22,15.56,15.56,0,0,0-2.94,4.7,15.47,15.47,0,0,0,2.92,16.06,13.86,13.86,0,0,0,4.31,3.19,12,12,0,0,0,4.57,1.15v0h32.55v0c.19,0,.37,0,.56,0a11.48,11.48,0,0,0,3.24-.46,12.8,12.8,0,0,0,3.06-1.35,15.35,15.35,0,0,0,2.69-2.06,14.33,14.33,0,0,0,2.17-2.62v7.15a9.72,9.72,0,0,1-.9,4.32,9.09,9.09,0,0,1-2.48,3.11,10.62,10.62,0,0,1-3.66,1.9,15.34,15.34,0,0,1-4.45.63,15.53,15.53,0,0,1-6.52-1.4,10.39,10.39,0,0,1-4.81-4.65l-1.05.33a13,13,0,0,0,4.46,5q2.85,1.88,7.92,1.87a16.83,16.83,0,0,0,4.7-.66,11.91,11.91,0,0,0,4-2,10.06,10.06,0,0,0,2.81-3.47,10.89,10.89,0,0,0,1-4.9Zm-53.48,24a14.16,14.16,0,0,1-2.67-4.32,13.94,13.94,0,0,1-1-5.23,14.26,14.26,0,0,1,1-5.3,14.53,14.53,0,0,1,2.69-4.4,12.71,12.71,0,0,1,4-3,11.09,11.09,0,0,1,9.63,0,12.77,12.77,0,0,1,4,3,14.12,14.12,0,0,1,2.7,4.35,13.89,13.89,0,0,1,1,5.22,14.08,14.08,0,0,1-1,5.28,13.93,13.93,0,0,1-2.72,4.34,13.29,13.29,0,0,1-4,3,10.87,10.87,0,0,1-4.81,1.11,11,11,0,0,1-4.84-1.08A12.28,12.28,0,0,1,113.49,201.56Zm51.26-1.68a12.72,12.72,0,0,1-2.56,2.8,13.37,13.37,0,0,1-3.49,2.07,10.56,10.56,0,0,1-4,.8,11.16,11.16,0,0,1-5-1.13,13,13,0,0,1-4-3,14.73,14.73,0,0,1-2.69-4.34,13.6,13.6,0,0,1-1-5.15,15.12,15.12,0,0,1,.82-4.86,14.48,14.48,0,0,1,2.37-4.4,12.22,12.22,0,0,1,3.79-3.19,10.54,10.54,0,0,1,5.17-1.24,11,11,0,0,1,3.63.63,13.07,13.07,0,0,1,3.36,1.74,14.56,14.56,0,0,1,2.78,2.61,11.42,11.42,0,0,1,1.89,3.32V196.8A6.44,6.44,0,0,1,164.75,199.88Z"/><path class="cls-2" d="M85,206.63h17.1l.27,0a11.33,11.33,0,0,0,1.9-.19,11,11,0,0,0,1.9-.47l-.39-.88a10.86,10.86,0,0,1-1.56.36,9.71,9.71,0,0,1-1.46.14,3.66,3.66,0,0,1-2.64-.94,3.3,3.3,0,0,1-1-2.53V166.22h-1.1v35.91a4.49,4.49,0,0,0,1.21,3.28c.08.08.18.14.26.22H86V135.29H210.9v70.34H192.59c.13-.06.27-.1.4-.17a14,14,0,0,0,4.32-3.19,15.44,15.44,0,0,0,4-10.37,14.68,14.68,0,0,0-1.1-5.69,16,16,0,0,0-2.94-4.7,13.8,13.8,0,0,0-4.32-3.22,12.16,12.16,0,0,0-10.45,0,14,14,0,0,0-4.34,3.22,15.43,15.43,0,0,0-2.94,16.06,15,15,0,0,0,2.91,4.7,14,14,0,0,0,4.32,3.19,12.07,12.07,0,0,0,5.28,1.18H211.9V134.29H85Zm93.85-5.07a14.16,14.16,0,0,1-2.67-4.32,13.94,13.94,0,0,1-1-5.23,14.51,14.51,0,0,1,3.69-9.7,12.49,12.49,0,0,1,4-3,11.07,11.07,0,0,1,9.62,0,12.93,12.93,0,0,1,4,3,14.28,14.28,0,0,1,2.69,4.35,13.89,13.89,0,0,1,1,5.22,14.08,14.08,0,0,1-1,5.28,13.75,13.75,0,0,1-2.72,4.34,13.13,13.13,0,0,1-4,3,10.91,10.91,0,0,1-4.82,1.11,11.09,11.09,0,0,1-4.84-1.08A12.5,12.5,0,0,1,178.88,201.56Z"/></svg>