<svg id="Layer_1" data-name="Layer 1" xmlns="http://www.w3.org/2000/svg" viewBox="0 0 297.91 312.91"><defs><style>.cls-1{fill:none;}.cls-2{fill:#ee4023;}.cls-3{fill:#fff;}</style></defs><title>triangel-illustration</title><polygon class="cls-1" points="148.95 47.09 22.78 252.09 275.13 252.05 148.95 47.09"/><polygon class="cls-2" points="148.95 47.09 22.78 252.09 275.13 252.05 148.95 47.09"/><path class="cls-2" d="M219.94,203.35s-27.4,8.51-42.65,61.2c0,0-52.65-91.24-110-67.5l64-57.53s37.5-11.72,88.7,63.83"/><path class="cls-3" d="M177.44,265.82l-.58-1c-.13-.22-13.37-23-33.43-42.56-18.44-18-46.58-36.88-76-24.73l-2.69,1.11L131.09,139c.39-.12,9.73-2.91,25.49,3.6,14.46,6,37.25,21.3,63.77,60.43l.38.56-.64.2c-.27.08-27.34,9.09-42.32,60.86ZM86.65,192.67c18.35,0,37.89,9.74,57.5,28.87,17.76,17.34,30.19,37.16,33,41.77,7.89-26.63,18.93-41.59,26.85-49.47,7.33-7.3,13.28-10,15.18-10.74-48.95-71.94-85.51-63.7-87.67-63.13L69.62,195.61A50.47,50.47,0,0,1,86.65,192.67Z"/><path class="cls-2" d="M218.88,101.25a4.47,4.47,0,0,0-4.13-3.13h-.31l-49.7,60.38-6.26,12.15,10.73-8.26,49.55-60.53.23-.27Z"/><path class="cls-3" d="M157,172.41l7.34-14.23,49.86-60.56h.54a5,5,0,0,1,4.61,3.48l.18.6-.39.48-49.59,60.57Zm8.15-13.64L160,168.89l8.91-6.86,49.57-60.55,0-.08a3.94,3.94,0,0,0-3.65-2.78h-.07Z"/><path class="cls-3" d="M158.56,170.46a.76.76,0,0,0-.77,0c-1.56,1-3.57.63-5.69.28a16.35,16.35,0,0,0-3.71-.35c-.62,0-2.25.55-2.6,1.58a1.32,1.32,0,0,0,.52,1.48,4,4,0,0,0,1,.65,7.06,7.06,0,0,1,1.05.48c.12.36-.07.53-.78.59a10.43,10.43,0,0,1-4.48-1.26l-.93-.41c-3.37-1.39-6.42-2.55-9.63-2.48a3,3,0,0,0-2.51,1.27,2.19,2.19,0,0,0,0,2.18,11.34,11.34,0,0,0,1.62,2.18c1,1.18,2.37,2.78,2.06,3.59-.17.44-.88.75-2.07.91a13.34,13.34,0,0,1-5.07-.76l-.66-.18c-1.88-.52-3.83-1.05-5.7-1.72l-.76-.27c-3.6-1.3-7.32-2.64-11.28-1.77a.73.73,0,0,0-.56.5.81.81,0,0,0,.17.79.78.78,0,0,0,.75.24c3.61-.79,7.17.51,10.61,1.77,1.18.43,2.4.88,3.6,1.23l1.49.47a22.38,22.38,0,0,0,6.45,1.38,7.09,7.09,0,0,0,1.74-.2,3.94,3.94,0,0,0,2.71-1.84,2.68,2.68,0,0,0,0-2.36,8.88,8.88,0,0,0-1.92-2.51l-.49-.5a10.23,10.23,0,0,1-1.15-1.44c-.15-.23-.37-.66-.24-.9s1.05-.52,2.13-.48c2.82.11,5.56,1.25,8.21,2.35,1,.4,2,.82,3,1.17.14,0,3.4,1.21,4.91.18a1.73,1.73,0,0,0,.74-1.44,1.83,1.83,0,0,0-1.17-1.7c-.25-.13-.5-.25-.76-.36l-.34-.15c-.28-.18,0-.55,0-.62.21-.22,1.31-.11,1.69-.1h.18a16.54,16.54,0,0,1,2.69.36c2,.37,4.1.76,6.12-.5a.75.75,0,0,0,.37-.68A.83.83,0,0,0,158.56,170.46Z"/></svg>