<svg id="Layer_1" data-name="Layer 1" xmlns="http://www.w3.org/2000/svg" viewBox="0 0 297.91 312.91"><defs><style>.cls-1{fill:#ee4023;}.cls-2{fill:#fff;}</style></defs><title>triangel-photography</title><path class="cls-1" d="M136.32,240l-.54-1.05c-.28-.52-.46-.86-.52-1s-.36-.65-.75-1.31c-2.65-3.57-9.46-14.25-10.65-16.12l-.72-.8c-7.18-7.07-8.75-10.49-9-11.34-3.82-2.52-3.57-7.64-3.47-8.74a16.91,16.91,0,0,1-3.32-7.43,2.19,2.19,0,0,1-1.26-.64c-1.66-1.63-1.69-6.09-1.65-7.64h-2.31V163.79l4.18-.27,1.29-3.1,5.09-.53,5-9.52.63-6.77.65-2.47-.23-5.28,1.49-.77a7.9,7.9,0,0,1-.9-2c-1.89-5.74-2.61-18.38-2.69-20.08v0a22.28,22.28,0,0,1,2.19-9.16c2.5-5,6.22-5.22,6.92-5.22h0c.64-.16,1.3-.34,2-.53,5.74-1.87,20.09-7.84,31.79-12.81l11.81-5.07L150.13,45.77,24,250.77l117.68,0c-.32-.7-.65-1.42-1-2.18C139.38,246,137.78,242.85,136.32,240Z"/><path class="cls-1" d="M181.44,135.69a10.7,10.7,0,0,1,.19,1.77,5.92,5.92,0,0,1-1.23,4.18l.25,30.76a25.7,25.7,0,0,1,2.51,4.66l2.8.66.22,4.77c2.86-2.82,4.82-2.53,5.59-2.23a4.17,4.17,0,0,1,2.88-1,1.81,1.81,0,0,1,1.21.61l.06.11a6,6,0,0,1,.26,3.32,14.31,14.31,0,0,1-2.22,5.93,37.05,37.05,0,0,1-2.12,3.44,4.8,4.8,0,0,0-.21.49,66.73,66.73,0,0,1-3,6.61h0c-.26.54-.54,1.09-.82,1.66-2.19,4.39-4.82,9.68-6.6,14.37l0,.1-.09.19c-.11.21-.2.42-.29.63a35.77,35.77,0,0,0-1.41,4.83,12.92,12.92,0,0,0-.08,3.82,40.6,40.6,0,0,1,.23,12,21.74,21.74,0,0,1-1.38,6c-.28.8-.52,1.35-.63,1.61s-.12.32-.17.49c-.42,1.49-.87,3.32-1.32,5.33H276.31L192.62,114.79c-3.68,3.43-9.25,4-10.93,4.07Z"/><path class="cls-1" d="M159.15,86.46c-9.73,4.17-20.49,8.78-24.21,10.34-.07,0-3.83,1.31-7.44,2.32a14.3,14.3,0,0,1-1.59.43l-.06,0h-.09c-.72.06-4,.56-6.22,5a23.71,23.71,0,0,0-1.93,8.44c.23,4.05.72,9.49,1.4,13.94a7,7,0,0,1,5.93,6.55,2.41,2.41,0,0,0,.24-.21,5.25,5.25,0,0,0,1.16-4.32l0-8.28.14-.15s.87-1.08,1-5.37v-.18l.12-.14a8,8,0,0,0,1.44-3.4l.13-.61.58.26a2.26,2.26,0,0,0,1.84.11,1.84,1.84,0,0,0,.69-1.51l0-.26.23-.13a11.27,11.27,0,0,0,2.33-2.23l.15-.17H139l-.22.66c-.61,1.75-3.54,10.2-4.26,11.63a12.94,12.94,0,0,0,.72,4.56l.06.18c0,.11,1.3,11.06,3.42,14.16l.06.14s1,3,3.54,3.93c1.83.64,4.06.08,6.64-1.65.26-.67,1.41-4.17-.08-10.31-.27-1.08-1.6-6.57-1.06-8.07l.07-.12s3.24-4.41,2.76-7.54l0-.11,1.27-4,2.59-1.17-.27,1c-1.24,4.82-3.15,12.86-3,13.91.42,2.35,1.17,5.13,1.65,5.54l.14.13,0,.19c0,.11,1.57,11.63,6.28,13.19,0,0,4,.68,5.91-1.28,1-1,1.37-2.69,1-4.89-.08-.29-2.34-8.22-2.21-11.45l0-.19a17.92,17.92,0,0,0,1-7.61v-.11l1.68-4.19,1.69,1.77,0,.24c-.69,5.06-1.48,12.57-1.07,13.46l0,.14c.79,5.65,2.32,11.95,3.41,12.29a11,11,0,0,0,8.88-.31,5.49,5.49,0,0,0,1-3.42,11.42,11.42,0,0,0-.14-1.53l-1.51-.68,0-.35a16.06,16.06,0,0,0-1-6.38l-.07-.18.05-.17c.63-1.93,2-7.33.95-9.19l-.14-.25,1.21-2,1.34,1c1.28-.06,8.7-.63,12-5.45a10.36,10.36,0,0,0,1.63-5.31v-3L176.78,78.89C175,79.67,167.69,82.83,159.15,86.46Z"/><path class="cls-1" d="M154.82,209.36A23.41,23.41,0,1,0,131.41,186,23.43,23.43,0,0,0,154.82,209.36Zm-.06-42.81a19,19,0,1,1-19,19A19,19,0,0,1,154.76,166.55Z"/><path class="cls-1" d="M193.53,184.15a2,2,0,0,0,1.2-.85,3.32,3.32,0,0,0,.46-1.38,7.4,7.4,0,0,0-.29-1.59c-.58-.3-1.7.23-2.42.68A3.39,3.39,0,0,1,193.53,184.15Z"/><path class="cls-1" d="M111.32,179.49l0-.05c3.61-7.72,12.4-16.89,14.27-17.94a7.84,7.84,0,0,1,2.5-1.05l.23,0,.17.17c4.41,4.35.9,8.34-1.19,10.73h0a8.94,8.94,0,0,1-.63,10.17c1.41.75,1.92,2.7,2.07,5v.05a20.38,20.38,0,0,1,0,3.43c0,.59,0,1.17-.07,1.75a33.83,33.83,0,0,0,0,4.48c1.67,4.87,8.78,11,16.57,14.27,7.25,3.05,14.06,3.36,19.2.87,13.1-6.33,14.58-9.79,17.66-20.78a20.58,20.58,0,0,1,3.12-6.82l-.25-5.26-2.74-.65v-.4s-.17-.9-2.52-4.66l-.08-.12-.25-30.47a11.75,11.75,0,0,1-9.06.06c-2.13-.66-3.62-10.06-4-13-.58-1.69.65-11.2,1-13.69l-.28-.3-1,2.54a18.74,18.74,0,0,1-1,7.87c-.08,3.13,2.16,11,2.18,11.09.49,2.6.07,4.54-1.22,5.83-2.35,2.35-6.69,1.58-6.87,1.54-5.09-1.69-6.79-12.37-7-13.87-.93-1.13-1.69-5.15-1.84-6-.23-1.41,1.94-10.18,2.74-13.33l-.28.12-1.06,3.31c.42,3.33-2.48,7.49-2.92,8.09-.29,1,.52,5.08,1.11,7.43,1.75,7.22,0,10.94,0,11.09l-.06.12-.11.08c-2.91,2-5.49,2.61-7.67,1.85a7.35,7.35,0,0,1-4.13-4.51c-2.14-3.24-3.4-13.3-3.54-14.45-.78-1.57-.79-4.93-.79-5.08v-.15l.08-.12c.35-.53,2.54-6.7,4-10.89H135.5a14.07,14.07,0,0,1-2.22,2.12,2.57,2.57,0,0,1-1.17,2,2.92,2.92,0,0,1-2.19.14,8.94,8.94,0,0,1-1.42,3.15c-.12,3.75-.81,5.21-1.12,5.68l0,7.88a6.18,6.18,0,0,1-1.44,5.06,7,7,0,0,1-4.79,1.79l-1.37.72.2,4.79-.66,2.54-.69,7-5.32,10.08-5,.52-1.3,3.12-3.86.25v18.21h2.36l0,.53c-.1,1.6,0,6,1.34,7.4a1.17,1.17,0,0,0,1,.37h0c.11-1.83.78-3.74,1.83-6.71C110.1,183.1,110.67,181.48,111.32,179.49Zm43.5-18A24.41,24.41,0,1,1,130.41,186,24.44,24.44,0,0,1,154.82,161.54Z"/><path class="cls-1" d="M122.19,166.83c.41.14,1.24-.45,1.74-.79l.1-.07.51-.35c.35-.23.69-.46,1-.72a4.51,4.51,0,0,0,1.76-3.14,12.45,12.45,0,0,0-1.21.61,28.45,28.45,0,0,0-4.24,4C121.94,166.58,122,166.78,122.19,166.83Z"/><path class="cls-1" d="M121.18,177.1c2.1-2.35,2.7-4.3,1.88-6.07a17.64,17.64,0,0,0-1.81,2.92c-.38.69-.76,1.4-1.18,2.05-.16.24-.29.48-.44.71A11.26,11.26,0,0,0,121.18,177.1Z"/><path class="cls-1" d="M154.76,203.52a18,18,0,1,0-18-18A18,18,0,0,0,154.76,203.52Z"/><path class="cls-1" d="M119.17,127.94c.22,1.33.46,2.56.71,3.59a8.24,8.24,0,0,0,1.32,3.2,6.69,6.69,0,0,0,2.78-.63C123.84,129.44,120.59,128.24,119.17,127.94Z"/><path class="cls-1" d="M183.09,190.87c-3.19,11.33-4.7,14.89-18.19,21.42-5.4,2.61-12.51,2.3-20-.85-8-3.37-15.07-9.44-17-14.57-.37,2-.76,3.61-1,4.32.51.7,2,2.92,1.48,5.05a.51.51,0,0,1-.6.38.49.49,0,0,1-.37-.6c.46-2.05-1.44-4.4-1.46-4.43l-.2-.23.13-.28a62.83,62.83,0,0,0,1.91-11c0-1.17,0-2.35,0-3.44-.37-3.13-1-3.4-1.85-3.8l-.15-.07c0,2-.59,5.21-2.1,6.83a2.88,2.88,0,0,1-1.92.95c-.06.28-.13.57-.2.87-.25,1.12-.53,2.32-.83,3.59-3.36,8.73-1.68,11.22-1.66,11.24a.5.5,0,0,1-.41.8.49.49,0,0,1-.38-.18c-.22-.28-2-3,1.49-12.15.29-1.21.56-2.41.82-3.53,1.37-6,2.13-9.27,3.59-9.86a1.41,1.41,0,0,1,1.3.15l0,0a8,8,0,0,0,.86-9.75,4.14,4.14,0,0,0-2.58-1.39c1.26,2.27.63,4.77-2,7.62a.84.84,0,0,1-.63.19,7.1,7.1,0,0,1-2.09-.49,24.14,24.14,0,0,0-2.25,5c-.44,1.42-.9,2.87-1.37,4.33A121.1,121.1,0,0,0,112,199.43h0l0,.21a8.06,8.06,0,0,0,2.9,8l.14.09,0,.11a85.22,85.22,0,0,0,8.79,11.08l.07.08.62.61.07.09.14.21c2.24,2.51,8.42,12.38,10.68,16.18.11.16.22.3.32.42l1.34,2.63c1.86,3.51,3.44,6.68,4.75,9.47a45.32,45.32,0,0,1,2,4.4h0a38.61,38.61,0,0,1,2.27,6.39,12.09,12.09,0,0,1,.43,2.51c1.44,1.4,18.86,12.16,24.71,9.31.06-.36.19-1.11.37-2.14.08-.47.16-1,.25-1.46,1.18-7,2.9-17.25,4.72-22.62,0-.1.05-.2.08-.29a1.23,1.23,0,0,0,.08-.18c.17-.46.33-.89.5-1.25v0a31.88,31.88,0,0,0,1.45-6.33,57,57,0,0,0-.37-11.87,11.48,11.48,0,0,1,.18-3.53,19.91,19.91,0,0,1,1.46-5.11c.11-.32.22-.63.34-.95.31-1.86,3-7.6,7.49-16.17v0l3.2-7.07.09-.13c.17-.33.38-.69.61-1.06a12.12,12.12,0,0,0,.77-3.79c0-.42.08-.86.14-1.31q0-.4.12-.84c.23-1.37.43-2.67-.79-3.62h0l-.22-.15C190.88,181.21,185.88,180.91,183.09,190.87Zm-49,24.37h0a.5.5,0,0,1-.47-.53,5.64,5.64,0,0,0-5.2-5.81.5.5,0,1,1,.07-1,6.62,6.62,0,0,1,6.12,6.85A.5.5,0,0,1,134.08,215.24Zm15,7.17a.5.5,0,0,1,.67.23c2.43,5.06,6.08,7.58,10.24,10.12l1.14.68a26.6,26.6,0,0,1,7.08,5.42,24.79,24.79,0,0,1,2.51,3.71,22.78,22.78,0,0,0,2.32,3.43.5.5,0,0,1-.06.71.47.47,0,0,1-.32.12.49.49,0,0,1-.38-.18,23.53,23.53,0,0,1-2.42-3.58,24.24,24.24,0,0,0-2.42-3.57,25.42,25.42,0,0,0-6.83-5.2l-1.14-.69c-4.3-2.62-8.07-5.23-10.62-10.53A.5.5,0,0,1,149.1,222.41Zm-8.81-5.63a7,7,0,0,0-3.14-.36h-.54a.49.49,0,0,1-.51-.48.51.51,0,0,1,.49-.52h.52a8.05,8.05,0,0,1,3.58.44,8.38,8.38,0,0,1,2.62,2.1l.46.49a14.93,14.93,0,0,0,3.15,2.75.5.5,0,0,1,.17.68.5.5,0,0,1-.43.25.45.45,0,0,1-.25-.07,15.51,15.51,0,0,1-3.37-2.93l-.46-.48A7.43,7.43,0,0,0,140.29,216.78Z"/><path class="cls-1" d="M180.45,135l.24-16.35-.39-.29-.35.58c1.15,2.6-.55,8.3-.95,9.55a16.75,16.75,0,0,1,1,6.32Z"/><path class="cls-1" d="M193.42,184.93a2.7,2.7,0,0,1,0,.28c0,.27-.09.54-.12.8,0,.44-.09.87-.13,1.29s-.11,1.08-.18,1.61l.12-.2a22,22,0,0,0,1.91-4.55A2.67,2.67,0,0,1,193.42,184.93Z"/><path class="cls-1" d="M124.76,182.2a.32.32,0,0,0-.21,0c-.85.35-1.63,3.29-2.55,7.24a1.88,1.88,0,0,0,.94-.58C124.33,187.39,124.84,183.91,124.76,182.2Z"/><path class="cls-1" d="M128.2,161.72l-.14-.16-.05.23A.29.29,0,0,0,128.2,161.72Z"/><path class="cls-1" d="M115.88,182.32a25.79,25.79,0,0,1,2.52-5.51l.09-.35h.12c.21-.34.4-.67.62-1,.4-.62.76-1.28,1.13-2a13.81,13.81,0,0,1,2.88-4.1l.14-.12h.19a4.93,4.93,0,0,1,3.1,1.3c2-2.26,4.54-5.29,1.64-8.71a5.53,5.53,0,0,1-2.12,3.83c-.35.28-.72.53-1.1.78l-.49.33-.1.07a4.34,4.34,0,0,1-2.18,1,1.76,1.76,0,0,1-.45-.07,1.44,1.44,0,0,1-.71-.59h0c-3.11,3.49-6.85,8.3-8.88,12.64-.66,2-1.23,3.61-1.73,5-1.59,4.45-2.24,6.29-1.48,9.1a18.59,18.59,0,0,0,2.14,4.28c.86-3.84,2.1-7.78,3.32-11.6C115,185.18,115.45,183.73,115.88,182.32Z"/><path class="cls-2" d="M145.44,262.12a10.63,10.63,0,0,0-.33-2.15,3.33,3.33,0,0,1,.06,1.34c-.07.24,0,.55.32,1l-.05-.08Z"/><path class="cls-2" d="M172.74,267.79c-.08.47-.15.92-.23,1.36.7-4,2.15-12,3.57-18.41H176C174.72,256.07,173.59,262.76,172.74,267.79Z"/><path class="cls-2" d="M145.67,262.55a11.85,11.85,0,0,0,1.85,1.61c4,3,14.51,8.65,20.93,8.65a6.21,6.21,0,0,0,3.35-.8,6.34,6.34,0,0,1-3.1.68C161,272.69,147.4,264.32,145.67,262.55Z"/><path class="cls-2" d="M172.09,271.65l0,.21h0l0-.22v0Z"/><path class="cls-2" d="M177,78.27l18.57,25.65v3.21a10.17,10.17,0,0,1-3.15,7.25l.25.41a10.71,10.71,0,0,0,1.61-1.86,10.34,10.34,0,0,0,1.79-5.8v-3.38l-18.9-26.1h0l-.37.16h0l-5.45,2.34.26.43Z"/><polygon class="cls-1" points="188.61 199.73 188.61 199.72 188.6 199.73 188.61 199.73"/><polygon class="cls-2" points="188.61 199.73 188.61 199.72 188.6 199.73 188.61 199.73"/><path class="cls-1" d="M191.84,192.62a37.05,37.05,0,0,0,2.12-3.44c-.33.54-.66,1.06-1,1.54A21,21,0,0,0,191.84,192.62Z"/><path class="cls-2" d="M191.84,192.62a37.05,37.05,0,0,0,2.12-3.44c-.33.54-.66,1.06-1,1.54A21,21,0,0,0,191.84,192.62Z"/><path class="cls-1" d="M181.13,216.05l.09-.19,0-.1c-.12.31-.23.61-.34.92C180.93,216.47,181,216.26,181.13,216.05Z"/><path class="cls-2" d="M181.13,216.05l.09-.19,0-.1c-.12.31-.23.61-.34.92C180.93,216.47,181,216.26,181.13,216.05Z"/><path class="cls-1" d="M140.63,248.57c-1.15-2.44-2.58-5.29-4.31-8.58C137.78,242.85,139.38,246,140.63,248.57Z"/><path class="cls-2" d="M140.63,248.57c-1.15-2.44-2.58-5.29-4.31-8.58C137.78,242.85,139.38,246,140.63,248.57Z"/><path class="cls-1" d="M123.86,220.52c1.19,1.87,8,12.55,10.65,16.12-2.2-3.71-8.42-13.65-10.62-16.09Z"/><path class="cls-2" d="M123.86,220.52c1.19,1.87,8,12.55,10.65,16.12-2.2-3.71-8.42-13.65-10.62-16.09Z"/><path class="cls-1" d="M127.7,98c-.66.19-1.32.37-2,.53h0c-.7,0-4.42.25-6.92,5.22a22.28,22.28,0,0,0-2.19,9.16v0c.08,1.7.8,14.34,2.69,20.08a7.9,7.9,0,0,0,.9,2l-1.49.77.23,5.28-.65,2.47-.63,6.77-5,9.52-5.09.53-1.29,3.1-4.18.27v20.14h2.31c0,1.55,0,6,1.65,7.64a2.19,2.19,0,0,0,1.26.64,16.91,16.91,0,0,0,3.32,7.43c-.1,1.1-.35,6.22,3.47,8.74.3.85,1.87,4.27,9,11.34l-.11-.11a88.29,88.29,0,0,1-8.89-11.2,9.17,9.17,0,0,1-3.25-8.78c-.54-.85-2.57-4.06-2.81-5.45a9,9,0,0,1-.32-3h0a1.17,1.17,0,0,1-1-.37c-1.38-1.36-1.44-5.8-1.34-7.4l0-.53h-2.36V164.72l3.86-.25,1.3-3.12,5-.52,5.32-10.08.69-7,.66-2.54-.2-4.79,1.37-.72a7,7,0,0,0,4.79-1.79,6.18,6.18,0,0,0,1.44-5.06l0-7.88c.31-.47,1-1.93,1.12-5.68a8.94,8.94,0,0,0,1.42-3.15,2.92,2.92,0,0,0,2.19-.14,2.57,2.57,0,0,0,1.17-2,14.07,14.07,0,0,0,2.22-2.12h2.05c-1.46,4.19-3.65,10.36-4,10.89l-.08.12V119c0,.15,0,3.51.79,5.08.14,1.15,1.4,11.21,3.54,14.45a7.35,7.35,0,0,0,4.13,4.51c2.18.76,4.76.14,7.67-1.85l.11-.08.06-.12c.07-.15,1.78-3.87,0-11.09-.59-2.35-1.4-6.39-1.11-7.43.44-.6,3.34-4.76,2.92-8.09l1.06-3.31L153,111c-.8,3.15-3,11.92-2.74,13.33.15.82.91,4.84,1.84,6,.21,1.5,1.91,12.18,7,13.87.18,0,4.52.81,6.87-1.54,1.29-1.29,1.71-3.23,1.22-5.83,0-.08-2.26-8-2.18-11.09a18.74,18.74,0,0,0,1-7.87l1-2.54.28.3c-.34,2.49-1.57,12-1,13.69.41,3,1.9,12.36,4,13a11.75,11.75,0,0,0,9.06-.06l.25,30.47.08.12c2.35,3.76,2.51,4.66,2.52,4.66v.4l2.74.65.25,5.26c2.69-3.59,5.62-3.56,6.46-3.46.65-.44,2.71-1.69,3.94-.7l.11.09.05.14a8.61,8.61,0,0,1,.38,3.4,6,6,0,0,0-.26-3.32l-.06-.11a1.81,1.81,0,0,0-1.21-.61,4.17,4.17,0,0,0-2.88,1c-.77-.3-2.73-.59-5.59,2.23l-.22-4.77-2.8-.66a25.7,25.7,0,0,0-2.51-4.66l-.25-30.76a5.92,5.92,0,0,0,1.23-4.18,10.7,10.7,0,0,0-.19-1.77l.25-16.83c1.68-.09,7.25-.64,10.93-4.07l-.25-.41a10.17,10.17,0,0,0,3.15-7.25v-3.21L177,78.27l-5.39,2.31-.26-.43-11.81,5.07C147.79,90.19,133.44,96.16,127.7,98ZM179,128.46c.4-1.25,2.1-7,.95-9.55l.35-.58.39.29L180.45,135l-.43-.19A16.75,16.75,0,0,0,179,128.46Zm16-24.38v3a10.36,10.36,0,0,1-1.63,5.31c-3.34,4.82-10.76,5.39-12,5.45l-1.34-1-1.21,2,.14.25c1.08,1.86-.32,7.26-.95,9.19l-.05.17.07.18a16.06,16.06,0,0,1,1,6.38l0,.35,1.51.68a11.42,11.42,0,0,1,.14,1.53,5.49,5.49,0,0,1-1,3.42,11,11,0,0,1-8.88.31c-1.09-.34-2.62-6.64-3.41-12.29l0-.14c-.41-.89.38-8.4,1.07-13.46l0-.24-1.69-1.77L165,117.64v.11a17.92,17.92,0,0,1-1,7.61l0,.19c-.13,3.23,2.13,11.16,2.21,11.45.41,2.2.09,3.85-1,4.89-2,2-5.89,1.28-5.91,1.28C154.59,141.61,153,130.09,153,130l0-.19-.14-.13c-.48-.41-1.23-3.19-1.65-5.54-.18-1.05,1.73-9.09,3-13.91l.27-1-2.59,1.17-1.27,4,0,.11c.48,3.13-2.73,7.49-2.76,7.54l-.07.12c-.54,1.5.79,7,1.06,8.07,1.49,6.14.34,9.64.08,10.31-2.58,1.73-4.81,2.29-6.64,1.65-2.57-.9-3.53-3.9-3.54-3.93l-.06-.14c-2.12-3.1-3.41-14.05-3.42-14.16l-.06-.18a12.94,12.94,0,0,1-.72-4.56c.72-1.43,3.65-9.88,4.26-11.63l.22-.66H135l-.15.17a11.27,11.27,0,0,1-2.33,2.23l-.23.13,0,.26a1.84,1.84,0,0,1-.69,1.51,2.26,2.26,0,0,1-1.84-.11l-.58-.26-.13.61a8,8,0,0,1-1.44,3.4l-.12.14v.18c-.11,4.29-1,5.37-1,5.37l-.14.15,0,8.28a5.25,5.25,0,0,1-1.16,4.32,2.41,2.41,0,0,1-.24.21c0,.31,0,.61,0,1h-1c0-.11,0-.2,0-.3a6.69,6.69,0,0,1-2.78.63,8.24,8.24,0,0,1-1.32-3.2c-.25-1-.49-2.26-.71-3.59-.35-.07-.59-.09-.64-.1l.07-1a3.94,3.94,0,0,1,.41.05c-.68-4.45-1.17-9.89-1.4-13.94a23.71,23.71,0,0,1,1.93-8.44c2.19-4.4,5.5-4.9,6.22-5h.09l.06,0a14.3,14.3,0,0,0,1.59-.43c3.61-1,7.37-2.29,7.44-2.32,3.72-1.56,14.48-6.17,24.21-10.34,8.54-3.63,15.83-6.79,17.63-7.57Z"/><path class="cls-2" d="M127.7,98c-.66.19-1.32.37-2,.53h0c-.7,0-4.42.25-6.92,5.22a22.28,22.28,0,0,0-2.19,9.16v0c.08,1.7.8,14.34,2.69,20.08a7.9,7.9,0,0,0,.9,2l-1.49.77.23,5.28-.65,2.47-.63,6.77-5,9.52-5.09.53-1.29,3.1-4.18.27v20.14h2.31c0,1.55,0,6,1.65,7.64a2.19,2.19,0,0,0,1.26.64,16.91,16.91,0,0,0,3.32,7.43c-.1,1.1-.35,6.22,3.47,8.74.3.85,1.87,4.27,9,11.34l-.11-.11a88.29,88.29,0,0,1-8.89-11.2,9.17,9.17,0,0,1-3.25-8.78c-.54-.85-2.57-4.06-2.81-5.45a9,9,0,0,1-.32-3h0a1.17,1.17,0,0,1-1-.37c-1.38-1.36-1.44-5.8-1.34-7.4l0-.53h-2.36V164.72l3.86-.25,1.3-3.12,5-.52,5.32-10.08.69-7,.66-2.54-.2-4.79,1.37-.72a7,7,0,0,0,4.79-1.79,6.18,6.18,0,0,0,1.44-5.06l0-7.88c.31-.47,1-1.93,1.12-5.68a8.94,8.94,0,0,0,1.42-3.15,2.92,2.92,0,0,0,2.19-.14,2.57,2.57,0,0,0,1.17-2,14.07,14.07,0,0,0,2.22-2.12h2.05c-1.46,4.19-3.65,10.36-4,10.89l-.08.12V119c0,.15,0,3.51.79,5.08.14,1.15,1.4,11.21,3.54,14.45a7.35,7.35,0,0,0,4.13,4.51c2.18.76,4.76.14,7.67-1.85l.11-.08.06-.12c.07-.15,1.78-3.87,0-11.09-.59-2.35-1.4-6.39-1.11-7.43.44-.6,3.34-4.76,2.92-8.09l1.06-3.31L153,111c-.8,3.15-3,11.92-2.74,13.33.15.82.91,4.84,1.84,6,.21,1.5,1.91,12.18,7,13.87.18,0,4.52.81,6.87-1.54,1.29-1.29,1.71-3.23,1.22-5.83,0-.08-2.26-8-2.18-11.09a18.74,18.74,0,0,0,1-7.87l1-2.54.28.3c-.34,2.49-1.57,12-1,13.69.41,3,1.9,12.36,4,13a11.75,11.75,0,0,0,9.06-.06l.25,30.47.08.12c2.35,3.76,2.51,4.66,2.52,4.66v.4l2.74.65.25,5.26c2.69-3.59,5.62-3.56,6.46-3.46.65-.44,2.71-1.69,3.94-.7l.11.09.05.14a8.61,8.61,0,0,1,.38,3.4,6,6,0,0,0-.26-3.32l-.06-.11a1.81,1.81,0,0,0-1.21-.61,4.17,4.17,0,0,0-2.88,1c-.77-.3-2.73-.59-5.59,2.23l-.22-4.77-2.8-.66a25.7,25.7,0,0,0-2.51-4.66l-.25-30.76a5.92,5.92,0,0,0,1.23-4.18,10.7,10.7,0,0,0-.19-1.77l.25-16.83c1.68-.09,7.25-.64,10.93-4.07l-.25-.41a10.17,10.17,0,0,0,3.15-7.25v-3.21L177,78.27l-5.39,2.31-.26-.43-11.81,5.07C147.79,90.19,133.44,96.16,127.7,98ZM179,128.46c.4-1.25,2.1-7,.95-9.55l.35-.58.39.29L180.45,135l-.43-.19A16.75,16.75,0,0,0,179,128.46Zm16-24.38v3a10.36,10.36,0,0,1-1.63,5.31c-3.34,4.82-10.76,5.39-12,5.45l-1.34-1-1.21,2,.14.25c1.08,1.86-.32,7.26-.95,9.19l-.05.17.07.18a16.06,16.06,0,0,1,1,6.38l0,.35,1.51.68a11.42,11.42,0,0,1,.14,1.53,5.49,5.49,0,0,1-1,3.42,11,11,0,0,1-8.88.31c-1.09-.34-2.62-6.64-3.41-12.29l0-.14c-.41-.89.38-8.4,1.07-13.46l0-.24-1.69-1.77L165,117.64v.11a17.92,17.92,0,0,1-1,7.61l0,.19c-.13,3.23,2.13,11.16,2.21,11.45.41,2.2.09,3.85-1,4.89-2,2-5.89,1.28-5.91,1.28C154.59,141.61,153,130.09,153,130l0-.19-.14-.13c-.48-.41-1.23-3.19-1.65-5.54-.18-1.05,1.73-9.09,3-13.91l.27-1-2.59,1.17-1.27,4,0,.11c.48,3.13-2.73,7.49-2.76,7.54l-.07.12c-.54,1.5.79,7,1.06,8.07,1.49,6.14.34,9.64.08,10.31-2.58,1.73-4.81,2.29-6.64,1.65-2.57-.9-3.53-3.9-3.54-3.93l-.06-.14c-2.12-3.1-3.41-14.05-3.42-14.16l-.06-.18a12.94,12.94,0,0,1-.72-4.56c.72-1.43,3.65-9.88,4.26-11.63l.22-.66H135l-.15.17a11.27,11.27,0,0,1-2.33,2.23l-.23.13,0,.26a1.84,1.84,0,0,1-.69,1.51,2.26,2.26,0,0,1-1.84-.11l-.58-.26-.13.61a8,8,0,0,1-1.44,3.4l-.12.14v.18c-.11,4.29-1,5.37-1,5.37l-.14.15,0,8.28a5.25,5.25,0,0,1-1.16,4.32,2.41,2.41,0,0,1-.24.21c0,.31,0,.61,0,1h-1c0-.11,0-.2,0-.3a6.69,6.69,0,0,1-2.78.63,8.24,8.24,0,0,1-1.32-3.2c-.25-1-.49-2.26-.71-3.59-.35-.07-.59-.09-.64-.1l.07-1a3.94,3.94,0,0,1,.41.05c-.68-4.45-1.17-9.89-1.4-13.94a23.71,23.71,0,0,1,1.93-8.44c2.19-4.4,5.5-4.9,6.22-5h.09l.06,0a14.3,14.3,0,0,0,1.59-.43c3.61-1,7.37-2.29,7.44-2.32,3.72-1.56,14.48-6.17,24.21-10.34,8.54-3.63,15.83-6.79,17.63-7.57Z"/><path class="cls-1" d="M179.22,224.92a56,56,0,0,1,.36,12.42,40.6,40.6,0,0,0-.23-12,12.92,12.92,0,0,1,.08-3.82A10.88,10.88,0,0,0,179.22,224.92Z"/><path class="cls-2" d="M179.22,224.92a56,56,0,0,1,.36,12.42,40.6,40.6,0,0,0-.23-12,12.92,12.92,0,0,1,.08-3.82A10.88,10.88,0,0,0,179.22,224.92Z"/><path class="cls-1" d="M177.57,244.92c.11-.26.35-.81.63-1.61l-.15.38C177.89,244.05,177.73,244.47,177.57,244.92Z"/><path class="cls-2" d="M177.57,244.92c.11-.26.35-.81.63-1.61l-.15.38C177.89,244.05,177.73,244.47,177.57,244.92Z"/><path class="cls-1" d="M176,250.74h.13c.45-2,.9-3.84,1.32-5.33C176.91,246.87,176.42,248.7,176,250.74Z"/><path class="cls-2" d="M176,250.74h.13c.45-2,.9-3.84,1.32-5.33C176.91,246.87,176.42,248.7,176,250.74Z"/><path class="cls-1" d="M171.14,271.23c.12-.65.24-1.37.37-2.14-.18,1-.31,1.78-.37,2.14Z"/><path class="cls-2" d="M171.14,271.23c.12-.65.24-1.37.37-2.14-.18,1-.31,1.78-.37,2.14Z"/><path class="cls-1" d="M143.73,253a45.32,45.32,0,0,0-2-4.4A66.61,66.61,0,0,1,146,259.41a38.61,38.61,0,0,0-2.27-6.39Z"/><path class="cls-2" d="M143.73,253a45.32,45.32,0,0,0-2-4.4A66.61,66.61,0,0,1,146,259.41a38.61,38.61,0,0,0-2.27-6.39Z"/><path class="cls-1" d="M178.6,236.93a31.88,31.88,0,0,1-1.45,6.33A20.77,20.77,0,0,0,178.6,236.93Z"/><path class="cls-2" d="M178.6,236.93a31.88,31.88,0,0,1-1.45,6.33A20.77,20.77,0,0,0,178.6,236.93Z"/><path class="cls-1" d="M187.71,199.28a69.76,69.76,0,0,0,3-6.5,4.18,4.18,0,0,1,.31-.7l-.09.13Z"/><path class="cls-2" d="M187.71,199.28a69.76,69.76,0,0,0,3-6.5,4.18,4.18,0,0,1,.31-.7l-.09.13Z"/><path class="cls-1" d="M191.85,181.46l-.19-.14h0l.22.15Z"/><path class="cls-2" d="M191.85,181.46l-.19-.14h0l.22.15Z"/><path class="cls-1" d="M114.81,207.65h0l.12.12,0,.07,0-.11Z"/><path class="cls-2" d="M114.81,207.65h0l.12.12,0,.07,0-.11Z"/><path class="cls-1" d="M186.88,201c.29-.57.56-1.12.82-1.65-4.53,8.57-7.18,14.31-7.49,16.17C182,210.81,184.58,205.57,186.88,201Z"/><path class="cls-2" d="M186.88,201c.29-.57.56-1.12.82-1.65-4.53,8.57-7.18,14.31-7.49,16.17C182,210.81,184.58,205.57,186.88,201Z"/><path class="cls-1" d="M135.35,236.1c.43.72.72,1.23.81,1.42l.5,1,.35.67-1.34-2.63C135.57,236.4,135.46,236.26,135.35,236.1Z"/><path class="cls-2" d="M135.35,236.1c.43.72.72,1.23.81,1.42l.5,1,.35.67-1.34-2.63C135.57,236.4,135.46,236.26,135.35,236.1Z"/><path class="cls-1" d="M179.87,216.42a19.91,19.91,0,0,0-1.46,5.11A33.72,33.72,0,0,1,179.87,216.42Z"/><path class="cls-2" d="M179.87,216.42a19.91,19.91,0,0,0-1.46,5.11A33.72,33.72,0,0,1,179.87,216.42Z"/><path class="cls-1" d="M124.46,219.62l-.62-.61.79.87,0,0-.14-.21Z"/><path class="cls-2" d="M124.46,219.62l-.62-.61.79.87,0,0-.14-.21Z"/><path class="cls-1" d="M176.48,245c.05-.16.11-.32.16-.47a1.23,1.23,0,0,1-.08.18C176.53,244.81,176.51,244.91,176.48,245Z"/><path class="cls-2" d="M176.48,245c.05-.16.11-.32.16-.47a1.23,1.23,0,0,1-.08.18C176.53,244.81,176.51,244.91,176.48,245Z"/><path class="cls-1" d="M193.07,188.71a14.8,14.8,0,0,0,2-4.62l-.06.07A22,22,0,0,1,193.07,188.71Z"/><path class="cls-2" d="M193.07,188.71a14.8,14.8,0,0,0,2-4.62l-.06.07A22,22,0,0,1,193.07,188.71Z"/><path class="cls-2" d="M112,199.43a121.1,121.1,0,0,1,3.51-12.49c.47-1.46.93-2.91,1.37-4.33a24.14,24.14,0,0,1,2.25-5,7.1,7.1,0,0,0,2.09.49.84.84,0,0,0,.63-.19c2.6-2.85,3.23-5.35,2-7.62a4.14,4.14,0,0,1,2.58,1.39l-.08-.14-.18-.31.48-.54.09-.11a4.93,4.93,0,0,0-3.1-1.3h-.19l-.14.12a13.81,13.81,0,0,0-2.88,4.1c-.37.7-.73,1.36-1.13,2-.22.34-.41.67-.62,1h-.12l-.09.35a25.79,25.79,0,0,0-2.52,5.51c-.43,1.41-.89,2.86-1.36,4.32-1.22,3.82-2.46,7.76-3.32,11.6l.64,1ZM121.25,174a17.64,17.64,0,0,1,1.81-2.92c.82,1.77.22,3.72-1.88,6.07a11.26,11.26,0,0,1-1.55-.39c.15-.23.28-.47.44-.71C120.49,175.35,120.87,174.64,121.25,174Z"/><path class="cls-2" d="M128.45,207.91a.5.5,0,1,0-.07,1,5.64,5.64,0,0,1,5.2,5.81.5.5,0,0,0,.47.53h0a.5.5,0,0,0,.49-.48A6.62,6.62,0,0,0,128.45,207.91Z"/><path class="cls-2" d="M146.41,222.06a.45.45,0,0,0,.25.07.5.5,0,0,0,.43-.25.5.5,0,0,0-.17-.68,14.93,14.93,0,0,1-3.15-2.75l-.46-.49a8.38,8.38,0,0,0-2.62-2.1,8.05,8.05,0,0,0-3.58-.44h-.52a.51.51,0,0,0-.49.52.49.49,0,0,0,.51.48h.54a7,7,0,0,1,3.14.36,7.43,7.43,0,0,1,2.29,1.87l.46.48A15.51,15.51,0,0,0,146.41,222.06Z"/><path class="cls-1" d="M193,188.91c.07-.53.13-1.07.18-1.61s.08-.85.13-1.29c0-.26.08-.53.12-.8a2.7,2.7,0,0,0,0-.28,2.54,2.54,0,0,1-.29,0l0-.75a1.75,1.75,0,0,0,.42-.07,3.39,3.39,0,0,0-1.05-3.14l-.35.23-.28.22c1.22.95,1,2.25.79,3.62q-.07.43-.12.84c-.06.45-.1.89-.14,1.31a12.12,12.12,0,0,1-.77,3.79l.54-.84Z"/><path class="cls-2" d="M193,188.91c.07-.53.13-1.07.18-1.61s.08-.85.13-1.29c0-.26.08-.53.12-.8a2.7,2.7,0,0,0,0-.28,2.54,2.54,0,0,1-.29,0l0-.75a1.75,1.75,0,0,0,.42-.07,3.39,3.39,0,0,0-1.05-3.14l-.35.23-.28.22c1.22.95,1,2.25.79,3.62q-.07.43-.12.84c-.06.45-.1.89-.14,1.31a12.12,12.12,0,0,1-.77,3.79l.54-.84Z"/><path class="cls-1" d="M192.13,181.24h0l-.19.14-.22,0h-.06l.19.14Z"/><path class="cls-2" d="M192.13,181.24h0l-.19.14-.22,0h-.06l.19.14Z"/><path class="cls-2" d="M192.13,181.24h0l-.19.14-.22,0h-.06l.19.14Z"/><path class="cls-1" d="M154.82,210.36A24.41,24.41,0,1,0,130.41,186,24.44,24.44,0,0,0,154.82,210.36Zm0-47.82A23.41,23.41,0,1,1,131.41,186,23.43,23.43,0,0,1,154.82,162.54Z"/><path class="cls-2" d="M154.82,210.36A24.41,24.41,0,1,0,130.41,186,24.44,24.44,0,0,0,154.82,210.36Zm0-47.82A23.41,23.41,0,1,1,131.41,186,23.43,23.43,0,0,1,154.82,162.54Z"/><path class="cls-1" d="M154.76,204.52a19,19,0,1,0-19-19A19,19,0,0,0,154.76,204.52Zm0-37a18,18,0,1,1-18,18A18,18,0,0,1,154.76,167.55Z"/><path class="cls-2" d="M154.76,204.52a19,19,0,1,0-19-19A19,19,0,0,0,154.76,204.52Zm0-37a18,18,0,1,1-18,18A18,18,0,0,1,154.76,167.55Z"/><path class="cls-2" d="M159.49,233.61l1.14.69a25.42,25.42,0,0,1,6.83,5.2,24.24,24.24,0,0,1,2.42,3.57,23.53,23.53,0,0,0,2.42,3.58.49.49,0,0,0,.38.18.47.47,0,0,0,.32-.12.5.5,0,0,0,.06-.71,22.78,22.78,0,0,1-2.32-3.43,24.79,24.79,0,0,0-2.51-3.71,26.6,26.6,0,0,0-7.08-5.42l-1.14-.68c-4.16-2.54-7.81-5.06-10.24-10.12a.5.5,0,1,0-.9.44C151.42,228.38,155.19,231,159.49,233.61Z"/><path class="cls-2" d="M121.87,167.78a1.76,1.76,0,0,0,.45.07,4.34,4.34,0,0,0,2.18-1l.1-.07.49-.33c.38-.25.75-.5,1.1-.78a5.53,5.53,0,0,0,2.12-3.83l-.11-.13a.29.29,0,0,1-.19.07l.05-.23-.05-.06c-.15.05-.38.13-.69.26a4.51,4.51,0,0,1-1.76,3.14c-.33.26-.67.49-1,.72L124,166l-.1.07c-.5.34-1.33.93-1.74.79-.15-.05-.25-.25-.32-.43l-.72.79h0A1.44,1.44,0,0,0,121.87,167.78Z"/><path class="cls-2" d="M124.76,182.2c.08,1.71-.43,5.19-1.82,6.67a1.88,1.88,0,0,1-.94.58c-.08.35-.16.7-.25,1.06a2.88,2.88,0,0,0,1.92-.95c1.51-1.62,2.07-4.86,2.1-6.83a5.26,5.26,0,0,1-.79-.43A.8.8,0,0,0,124.76,182.2Z"/><path class="cls-1" d="M193.53,184.15c0,.27-.06.53-.11.78a2.67,2.67,0,0,0,1.56-.77c.06-.24.12-.48.16-.72a7.71,7.71,0,0,0,.05-1.52,3.32,3.32,0,0,1-.46,1.38A2,2,0,0,1,193.53,184.15Z"/><path class="cls-2" d="M193.53,184.15c0,.27-.06.53-.11.78a2.67,2.67,0,0,0,1.56-.77c.06-.24.12-.48.16-.72a7.71,7.71,0,0,0,.05-1.52,3.32,3.32,0,0,1-.46,1.38A2,2,0,0,1,193.53,184.15Z"/><path class="cls-1" d="M195,184.16l.06-.07c0-.21.08-.43.1-.65C195.1,183.68,195,183.92,195,184.16Z"/><path class="cls-2" d="M195,184.16l.06-.07c0-.21.08-.43.1-.65C195.1,183.68,195,183.92,195,184.16Z"/><path class="cls-2" d="M195,184.16l.06-.07c0-.21.08-.43.1-.65C195.1,183.68,195,183.92,195,184.16Z"/><path class="cls-1" d="M193.11,184.22l0,.75a2.54,2.54,0,0,0,.29,0c.05-.25.08-.51.11-.78A1.75,1.75,0,0,1,193.11,184.22Z"/><path class="cls-2" d="M193.11,184.22l0,.75a2.54,2.54,0,0,0,.29,0c.05-.25.08-.51.11-.78A1.75,1.75,0,0,1,193.11,184.22Z"/><path class="cls-2" d="M193.11,184.22l0,.75a2.54,2.54,0,0,0,.29,0c.05-.25.08-.51.11-.78A1.75,1.75,0,0,1,193.11,184.22Z"/><path class="cls-2" d="M172.51,269.15c-.25,1.46-.4,2.37-.42,2.47C172.22,270.89,172.36,270.05,172.51,269.15Z"/><path class="cls-2" d="M145.52,262.38a.73.73,0,0,0,.15.17,1.68,1.68,0,0,1-.18-.21Z"/><path class="cls-2" d="M171.8,272l0,0,.21-.11v0l-.18.12Z"/><path class="cls-2" d="M142.77,253.31v-.13a26.29,26.29,0,0,0-1.09-2.43h-.05a55.36,55.36,0,0,1,3.47,9.22,35.92,35.92,0,0,0-2.29-6.54Z"/><path class="cls-1" d="M179.58,237.34a31.21,31.21,0,0,1-1.38,6A21.74,21.74,0,0,0,179.58,237.34Z"/><path class="cls-2" d="M179.58,237.34a31.21,31.21,0,0,1-1.38,6A21.74,21.74,0,0,0,179.58,237.34Z"/><path class="cls-1" d="M134.51,236.64c.39.66.66,1.13.75,1.31s.24.47.52,1l.54,1.05c-.52-1-1-2-1.5-2.93Z"/><path class="cls-2" d="M134.51,236.64c.39.66.66,1.13.75,1.31s.24.47.52,1l.54,1.05c-.52-1-1-2-1.5-2.93Z"/><path class="cls-1" d="M177.4,245.41c0-.17.11-.33.17-.49l-.08.17Z"/><path class="cls-2" d="M177.4,245.41c0-.17.11-.33.17-.49l-.08.17Z"/><path class="cls-1" d="M196.18,183.25a20.05,20.05,0,0,1-2.22,5.93A14.31,14.31,0,0,0,196.18,183.25Z"/><path class="cls-2" d="M196.18,183.25a20.05,20.05,0,0,1-2.22,5.93A14.31,14.31,0,0,0,196.18,183.25Z"/><path class="cls-1" d="M123.14,219.72l.72.8-.14-.22Z"/><path class="cls-2" d="M123.14,219.72l.72.8-.14-.22Z"/><path class="cls-1" d="M180.84,216.68a19.65,19.65,0,0,0-1.41,4.83A35.77,35.77,0,0,1,180.84,216.68Z"/><path class="cls-2" d="M180.84,216.68a19.65,19.65,0,0,0-1.41,4.83A35.77,35.77,0,0,1,180.84,216.68Z"/><path class="cls-1" d="M188.61,199.72a66.73,66.73,0,0,0,3-6.61,4.8,4.8,0,0,1,.21-.49l-.09.14Z"/><path class="cls-2" d="M188.61,199.72a66.73,66.73,0,0,0,3-6.61,4.8,4.8,0,0,1,.21-.49l-.09.14Z"/><path class="cls-1" d="M140.63,248.57c.36.76.69,1.48,1,2.18h.05C141.38,250.11,141,249.37,140.63,248.57Z"/><path class="cls-2" d="M140.63,248.57c.36.76.69,1.48,1,2.18h.05C141.38,250.11,141,249.37,140.63,248.57Z"/><path class="cls-1" d="M181.18,215.76c1.78-4.69,4.41-10,6.6-14.37.28-.57.56-1.12.82-1.66-6.9,13.07-7.4,15.66-7.43,16Z"/><path class="cls-2" d="M181.18,215.76c1.78-4.69,4.41-10,6.6-14.37.28-.57.56-1.12.82-1.66-6.9,13.07-7.4,15.66-7.43,16Z"/><path class="cls-1" d="M146.43,261.92a12.09,12.09,0,0,0-.43-2.51,5,5,0,0,1,.13,2.18c.24.9,6.73,5.33,13.71,8.12,5.3,2.12,9.29,2.66,11.3,1.54v0C165.29,274.08,147.87,263.32,146.43,261.92Z"/><path class="cls-2" d="M146.43,261.92a12.09,12.09,0,0,0-.43-2.51,5,5,0,0,1,.13,2.18c.24.9,6.73,5.33,13.71,8.12,5.3,2.12,9.29,2.66,11.3,1.54v0C165.29,274.08,147.87,263.32,146.43,261.92Z"/><path class="cls-1" d="M171.76,267.63c-.09.5-.17,1-.25,1.46.91-5.23,3.17-17.73,5-24.08C174.66,250.38,172.94,260.6,171.76,267.63Z"/><path class="cls-2" d="M171.76,267.63c-.09.5-.17,1-.25,1.46.91-5.23,3.17-17.73,5-24.08C174.66,250.38,172.94,260.6,171.76,267.63Z"/><path class="cls-1" d="M194.9,180.33a7.4,7.4,0,0,1,.29,1.59,4.49,4.49,0,0,0,0-1,5.7,5.7,0,0,0-.16-.55c-.15-.13-.89-.61-2.56.6h0C193.2,180.56,194.32,180,194.9,180.33Z"/><path class="cls-2" d="M194.9,180.33a7.4,7.4,0,0,1,.29,1.59,4.49,4.49,0,0,0,0-1,5.7,5.7,0,0,0-.16-.55c-.15-.13-.89-.61-2.56.6h0C193.2,180.56,194.32,180,194.9,180.33Z"/><path class="cls-1" d="M141.76,248.62c-1.31-2.79-2.89-6-4.75-9.47C138.74,242.53,140.48,246,141.76,248.62Z"/><path class="cls-2" d="M141.76,248.62c-1.31-2.79-2.89-6-4.75-9.47C138.74,242.53,140.48,246,141.76,248.62Z"/><path class="cls-1" d="M115,207.85l0,.1s.91,3.25,8.84,11.06l-.07-.08A85.22,85.22,0,0,1,115,207.85Z"/><path class="cls-2" d="M115,207.85l0,.1s.91,3.25,8.84,11.06l-.07-.08A85.22,85.22,0,0,1,115,207.85Z"/><path class="cls-1" d="M187.71,199.29h0v0Z"/><path class="cls-2" d="M187.71,199.29h0v0Z"/><polygon class="cls-1" points="121.12 166.57 121.17 166.55 121.16 166.54 121.11 166.56 121.12 166.57"/><polygon class="cls-2" points="121.12 166.57 121.17 166.55 121.16 166.54 121.11 166.56 121.12 166.57"/><path class="cls-1" d="M135.35,236.1c-2.26-3.8-8.44-13.67-10.68-16.18C125.7,221.55,132.69,232.49,135.35,236.1Z"/><path class="cls-2" d="M135.35,236.1c-2.26-3.8-8.44-13.67-10.68-16.18C125.7,221.55,132.69,232.49,135.35,236.1Z"/><path class="cls-1" d="M192.94,188.94l.13-.23-.12.2Z"/><path class="cls-2" d="M192.94,188.94l.13-.23-.12.2Z"/><path class="cls-1" d="M111.91,199.64l0-.21h0c0,.06,0,.13,0,.19l-.27-.05h0c0,.05-.69,5.67,3.14,8.06l0,0A8.06,8.06,0,0,1,111.91,199.64Z"/><path class="cls-2" d="M111.91,199.64l0-.21h0c0,.06,0,.13,0,.19l-.27-.05h0c0,.05-.69,5.67,3.14,8.06l0,0A8.06,8.06,0,0,1,111.91,199.64Z"/><path class="cls-1" d="M127.78,186.69s0-.06,0-.09c.06,1.09,0,2.27,0,3.44A18.65,18.65,0,0,0,127.78,186.69Z"/><path class="cls-2" d="M127.78,186.69s0-.06,0-.09c.06,1.09,0,2.27,0,3.44A18.65,18.65,0,0,0,127.78,186.69Z"/><path class="cls-1" d="M180.18,215.71c0-.07,0-.15,0-.24-.12.32-.23.63-.34.95C180,216.18,180.07,216,180.18,215.71Z"/><path class="cls-2" d="M180.18,215.71c0-.07,0-.15,0-.24-.12.32-.23.63-.34.95C180,216.18,180.07,216,180.18,215.71Z"/><path class="cls-1" d="M108.27,191.73s.06,2.76,2.85,6.87c0-.12.06-.24.08-.36a18.59,18.59,0,0,1-2.14-4.28c-.76-2.81-.11-4.65,1.48-9.1.5-1.42,1.07-3,1.73-5,2-4.34,5.77-9.15,8.88-12.64l-.09,0a.62.62,0,0,1-.34-.09l-.15-.7.12.08.07-.32a.77.77,0,0,1,.68-.21l.41.37a.14.14,0,0,0,0,.06,28.45,28.45,0,0,1,4.24-4,12.45,12.45,0,0,1,1.21-.61c0-.14,0-.28,0-.43a.64.64,0,0,1,.73-.54l.5,0,0,.54-.5,0-.05.22.14.16a.45.45,0,0,0,.16-.31c0,.15,0,.29-.05.44,2.9,3.42.35,6.45-1.64,8.71a6.16,6.16,0,0,1,.51.52l-.78.64,0-.06a8,8,0,0,1-.86,9.75l0,0,0,0a5.86,5.86,0,0,0,.81.43c1.24.55,2,1.08,2.44,4.64-.15-2.33-.66-4.28-2.07-5a8.94,8.94,0,0,0,.63-10.17h0c2.09-2.39,5.6-6.38,1.19-10.73l-.17-.17-.23,0a7.84,7.84,0,0,0-2.5,1.05c-1.87,1.05-10.66,10.22-14.27,17.94l0,.05c-.65,2-1.22,3.61-1.73,5-1,3-1.72,4.88-1.83,6.71l.51,0Z"/><path class="cls-2" d="M108.27,191.73s.06,2.76,2.85,6.87c0-.12.06-.24.08-.36a18.59,18.59,0,0,1-2.14-4.28c-.76-2.81-.11-4.65,1.48-9.1.5-1.42,1.07-3,1.73-5,2-4.34,5.77-9.15,8.88-12.64l-.09,0a.62.62,0,0,1-.34-.09l-.15-.7.12.08.07-.32a.77.77,0,0,1,.68-.21l.41.37a.14.14,0,0,0,0,.06,28.45,28.45,0,0,1,4.24-4,12.45,12.45,0,0,1,1.21-.61c0-.14,0-.28,0-.43a.64.64,0,0,1,.73-.54l.5,0,0,.54-.5,0-.05.22.14.16a.45.45,0,0,0,.16-.31c0,.15,0,.29-.05.44,2.9,3.42.35,6.45-1.64,8.71a6.16,6.16,0,0,1,.51.52l-.78.64,0-.06a8,8,0,0,1-.86,9.75l0,0,0,0a5.86,5.86,0,0,0,.81.43c1.24.55,2,1.08,2.44,4.64-.15-2.33-.66-4.28-2.07-5a8.94,8.94,0,0,0,.63-10.17h0c2.09-2.39,5.6-6.38,1.19-10.73l-.17-.17-.23,0a7.84,7.84,0,0,0-2.5,1.05c-1.87,1.05-10.66,10.22-14.27,17.94l0,.05c-.65,2-1.22,3.61-1.73,5-1,3-1.72,4.88-1.83,6.71l.51,0Z"/><path class="cls-1" d="M164.46,211.38c-5.14,2.49-12,2.18-19.2-.87-7.79-3.28-14.9-9.4-16.57-14.27a33.83,33.83,0,0,1,0-4.48c0-.58.05-1.16.07-1.75a60.9,60.9,0,0,1-.93,6.86c2,5.13,9,11.2,17,14.57,7.51,3.15,14.62,3.46,20,.85,13.49-6.53,15-10.09,18.19-21.42,2.79-10,7.79-9.66,8.54-9.55l-.09-.07s-1.94-1.18-5.43,2.77l-.82.93,0-1.17a20.58,20.58,0,0,0-3.12,6.82C179,201.59,177.56,205.05,164.46,211.38Z"/><path class="cls-2" d="M164.46,211.38c-5.14,2.49-12,2.18-19.2-.87-7.79-3.28-14.9-9.4-16.57-14.27a33.83,33.83,0,0,1,0-4.48c0-.58.05-1.16.07-1.75a60.9,60.9,0,0,1-.93,6.86c2,5.13,9,11.2,17,14.57,7.51,3.15,14.62,3.46,20,.85,13.49-6.53,15-10.09,18.19-21.42,2.79-10,7.79-9.66,8.54-9.55l-.09-.07s-1.94-1.18-5.43,2.77l-.82.93,0-1.17a20.58,20.58,0,0,0-3.12,6.82C179,201.59,177.56,205.05,164.46,211.38Z"/><polygon class="cls-1" points="121.06 166.59 121.08 166.57 120.89 166.63 120.91 166.64 121.06 166.59"/><polygon class="cls-2" points="121.06 166.59 121.08 166.57 120.89 166.63 120.91 166.64 121.06 166.59"/><path class="cls-1" d="M176.64,244.54c.1-.22.28-.65.51-1.28v0C177,243.65,176.81,244.08,176.64,244.54Z"/><path class="cls-2" d="M176.64,244.54c.1-.22.28-.65.51-1.28v0C177,243.65,176.81,244.08,176.64,244.54Z"/><path class="cls-1" d="M191,192.08l.37-.54c.09-.18.17-.35.24-.52C191.38,191.39,191.17,191.75,191,192.08Z"/><path class="cls-2" d="M191,192.08l.37-.54c.09-.18.17-.35.24-.52C191.38,191.39,191.17,191.75,191,192.08Z"/><polygon class="cls-1" points="121.41 166.77 121.31 166.68 121.31 166.69 121.41 166.77"/><polygon class="cls-2" points="121.41 166.77 121.31 166.68 121.31 166.69 121.41 166.77"/><path class="cls-1" d="M178.23,225.06a57,57,0,0,1,.37,11.87,39.11,39.11,0,0,0-.24-11.43,13.85,13.85,0,0,1,0-4A11.48,11.48,0,0,0,178.23,225.06Z"/><path class="cls-2" d="M178.23,225.06a57,57,0,0,1,.37,11.87,39.11,39.11,0,0,0-.24-11.43,13.85,13.85,0,0,1,0-4A11.48,11.48,0,0,0,178.23,225.06Z"/><path class="cls-2" d="M172.09,271.62c0-.1.17-1,.42-2.47.08-.44.15-.89.23-1.36.85-5,2-11.72,3.21-17.05h-.38c-2,8.89-4,20.82-4,20.82-6,3.89-26.46-8.29-25.94-10.11s-2.37-8.23-2.37-8.23a16,16,0,0,0-1.05-2.47h-.54a26.29,26.29,0,0,1,1.09,2.43v.13l0,.12a35.92,35.92,0,0,1,2.29,6.54,10.63,10.63,0,0,1,.33,2.15v.14l.05.08a1.68,1.68,0,0,0,.18.21c1.73,1.77,15.34,10.14,23,10.14a6.34,6.34,0,0,0,3.1-.68l.07,0,.18-.12,0-.21Z"/><path class="cls-2" d="M172.09,271.62c0-.1.17-1,.42-2.47.08-.44.15-.89.23-1.36.85-5,2-11.72,3.21-17.05h-.38c-2,8.89-4,20.82-4,20.82-6,3.89-26.46-8.29-25.94-10.11s-2.37-8.23-2.37-8.23a16,16,0,0,0-1.05-2.47h-.54a26.29,26.29,0,0,1,1.09,2.43v.13l0,.12a35.92,35.92,0,0,1,2.29,6.54,10.63,10.63,0,0,1,.33,2.15v.14l.05.08a1.68,1.68,0,0,0,.18.21c1.73,1.77,15.34,10.14,23,10.14a6.34,6.34,0,0,0,3.1-.68l.07,0,.18-.12,0-.21Z"/><path class="cls-1" d="M177.49,245.09l.08-.17c.16-.45.32-.87.48-1.23l.15-.38a31.21,31.21,0,0,0,1.38-6,56,56,0,0,0-.36-12.42,10.88,10.88,0,0,1,.21-3.41,19.65,19.65,0,0,1,1.41-4.83c.11-.31.22-.61.34-.92v0c0-.34.53-2.93,7.43-16h0l3.14-7,.09-.14a21,21,0,0,1,1.15-1.9c.31-.48.64-1,1-1.54a20.05,20.05,0,0,0,2.22-5.93,8.61,8.61,0,0,0-.38-3.4l-.05-.14-.11-.09c-1.23-1-3.29.26-3.94.7-.84-.1-3.77-.13-6.46,3.46l0,1.17.82-.93c3.49-4,5.42-2.78,5.43-2.77l.09.07h0a.71.71,0,0,0-.09-.07l.4-.63a5,5,0,0,1,.5.38c1.67-1.21,2.41-.73,2.56-.6a5.7,5.7,0,0,1,.16.55,3.62,3.62,0,0,0-.21-.8l.69-.28a4.35,4.35,0,0,1-.31,3.84,4,4,0,0,1-.32.38,14.8,14.8,0,0,1-2,4.62l-.13.23a8.81,8.81,0,0,1-1.1,3.3l-.65-.37c.07-.11.12-.22.18-.33l-.37.54a4.18,4.18,0,0,0-.31.7,69.76,69.76,0,0,1-3,6.5h0c-.26.53-.53,1.08-.82,1.65-2.3,4.62-4.91,9.86-6.67,14.52,0,.09,0,.17,0,.24-.11.24-.21.47-.31.71a33.72,33.72,0,0,0-1.46,5.11,13.85,13.85,0,0,0,0,4,39.11,39.11,0,0,1,.24,11.43,20.77,20.77,0,0,1-1.45,6.33c-.23.63-.41,1.06-.51,1.28s-.11.31-.16.47c-1.8,6.35-4.06,18.85-5,24.08-.13.77-.25,1.49-.37,2.14h0v0c-2,1.12-6,.58-11.3-1.54-7-2.79-13.47-7.22-13.71-8.12a5,5,0,0,0-.13-2.18,66.61,66.61,0,0,0-4.24-10.79c-1.28-2.65-3-6.09-4.75-9.47l-.35-.67-.5-1c-.09-.19-.38-.7-.81-1.42-2.66-3.61-9.65-14.55-10.68-16.18l0,0-.79-.87C115.91,211.2,115,208,115,208l0-.1,0-.07-.12-.12h0l0,0c-3.83-2.39-3.15-8-3.14-8.06h0l-.71-.15c.06-.27.13-.55.19-.82-2.79-4.11-2.85-6.85-2.85-6.87v-.54l-.51,0a9,9,0,0,0,.32,3c.24,1.39,2.27,4.6,2.81,5.45a9.17,9.17,0,0,0,3.25,8.78,88.29,88.29,0,0,0,8.89,11.2l.11.11.58.58.14.22,0,0c2.2,2.44,8.42,12.38,10.62,16.09l.31.42c.47.9,1,1.89,1.5,2.93,1.73,3.29,3.16,6.14,4.31,8.58.4.8.75,1.54,1.06,2.18h.54a16,16,0,0,1,1.05,2.47s2.89,6.42,2.37,8.23,20,14,25.94,10.11c0,0,2-11.93,4-20.82H176c.47-2,1-3.87,1.45-5.33Z"/><path class="cls-2" d="M177.49,245.09l.08-.17c.16-.45.32-.87.48-1.23l.15-.38a31.21,31.21,0,0,0,1.38-6,56,56,0,0,0-.36-12.42,10.88,10.88,0,0,1,.21-3.41,19.65,19.65,0,0,1,1.41-4.83c.11-.31.22-.61.34-.92v0c0-.34.53-2.93,7.43-16h0l3.14-7,.09-.14a21,21,0,0,1,1.15-1.9c.31-.48.64-1,1-1.54a20.05,20.05,0,0,0,2.22-5.93,8.61,8.61,0,0,0-.38-3.4l-.05-.14-.11-.09c-1.23-1-3.29.26-3.94.7-.84-.1-3.77-.13-6.46,3.46l0,1.17.82-.93c3.49-4,5.42-2.78,5.43-2.77l.09.07h0a.71.71,0,0,0-.09-.07l.4-.63a5,5,0,0,1,.5.38c1.67-1.21,2.41-.73,2.56-.6a5.7,5.7,0,0,1,.16.55,3.62,3.62,0,0,0-.21-.8l.69-.28a4.35,4.35,0,0,1-.31,3.84,4,4,0,0,1-.32.38,14.8,14.8,0,0,1-2,4.62l-.13.23a8.81,8.81,0,0,1-1.1,3.3l-.65-.37c.07-.11.12-.22.18-.33l-.37.54a4.18,4.18,0,0,0-.31.7,69.76,69.76,0,0,1-3,6.5h0c-.26.53-.53,1.08-.82,1.65-2.3,4.62-4.91,9.86-6.67,14.52,0,.09,0,.17,0,.24-.11.24-.21.47-.31.71a33.72,33.72,0,0,0-1.46,5.11,13.85,13.85,0,0,0,0,4,39.11,39.11,0,0,1,.24,11.43,20.77,20.77,0,0,1-1.45,6.33c-.23.63-.41,1.06-.51,1.28s-.11.31-.16.47c-1.8,6.35-4.06,18.85-5,24.08-.13.77-.25,1.49-.37,2.14h0v0c-2,1.12-6,.58-11.3-1.54-7-2.79-13.47-7.22-13.71-8.12a5,5,0,0,0-.13-2.18,66.61,66.61,0,0,0-4.24-10.79c-1.28-2.65-3-6.09-4.75-9.47l-.35-.67-.5-1c-.09-.19-.38-.7-.81-1.42-2.66-3.61-9.65-14.55-10.68-16.18l0,0-.79-.87C115.91,211.2,115,208,115,208l0-.1,0-.07-.12-.12h0l0,0c-3.83-2.39-3.15-8-3.14-8.06h0l-.71-.15c.06-.27.13-.55.19-.82-2.79-4.11-2.85-6.85-2.85-6.87v-.54l-.51,0a9,9,0,0,0,.32,3c.24,1.39,2.27,4.6,2.81,5.45a9.17,9.17,0,0,0,3.25,8.78,88.29,88.29,0,0,0,8.89,11.2l.11.11.58.58.14.22,0,0c2.2,2.44,8.42,12.38,10.62,16.09l.31.42c.47.9,1,1.89,1.5,2.93,1.73,3.29,3.16,6.14,4.31,8.58.4.8.75,1.54,1.06,2.18h.54a16,16,0,0,1,1.05,2.47s2.89,6.42,2.37,8.23,20,14,25.94,10.11c0,0,2-11.93,4-20.82H176c.47-2,1-3.87,1.45-5.33Z"/><path class="cls-2" d="M177.49,245.09l.08-.17c.16-.45.32-.87.48-1.23l.15-.38a31.21,31.21,0,0,0,1.38-6,56,56,0,0,0-.36-12.42,10.88,10.88,0,0,1,.21-3.41,19.65,19.65,0,0,1,1.41-4.83c.11-.31.22-.61.34-.92v0c0-.34.53-2.93,7.43-16h0l3.14-7,.09-.14a21,21,0,0,1,1.15-1.9c.31-.48.64-1,1-1.54a20.05,20.05,0,0,0,2.22-5.93,8.61,8.61,0,0,0-.38-3.4l-.05-.14-.11-.09c-1.23-1-3.29.26-3.94.7-.84-.1-3.77-.13-6.46,3.46l0,1.17.82-.93c3.49-4,5.42-2.78,5.43-2.77l.09.07h0a.71.71,0,0,0-.09-.07l.4-.63a5,5,0,0,1,.5.38c1.67-1.21,2.41-.73,2.56-.6a5.7,5.7,0,0,1,.16.55,3.62,3.62,0,0,0-.21-.8l.69-.28a4.35,4.35,0,0,1-.31,3.84,4,4,0,0,1-.32.38,14.8,14.8,0,0,1-2,4.62l-.13.23a8.81,8.81,0,0,1-1.1,3.3l-.65-.37c.07-.11.12-.22.18-.33l-.37.54a4.18,4.18,0,0,0-.31.7,69.76,69.76,0,0,1-3,6.5h0c-.26.53-.53,1.08-.82,1.65-2.3,4.62-4.91,9.86-6.67,14.52,0,.09,0,.17,0,.24-.11.24-.21.47-.31.71a33.72,33.72,0,0,0-1.46,5.11,13.85,13.85,0,0,0,0,4,39.11,39.11,0,0,1,.24,11.43,20.77,20.77,0,0,1-1.45,6.33c-.23.63-.41,1.06-.51,1.28s-.11.31-.16.47c-1.8,6.35-4.06,18.85-5,24.08-.13.77-.25,1.49-.37,2.14h0v0c-2,1.12-6,.58-11.3-1.54-7-2.79-13.47-7.22-13.71-8.12a5,5,0,0,0-.13-2.18,66.61,66.61,0,0,0-4.24-10.79c-1.28-2.65-3-6.09-4.75-9.47l-.35-.67-.5-1c-.09-.19-.38-.7-.81-1.42-2.66-3.61-9.65-14.55-10.68-16.18l0,0-.79-.87C115.91,211.2,115,208,115,208l0-.1,0-.07-.12-.12h0l0,0c-3.83-2.39-3.15-8-3.14-8.06h0l-.71-.15c.06-.27.13-.55.19-.82-2.79-4.11-2.85-6.85-2.85-6.87v-.54l-.51,0a9,9,0,0,0,.32,3c.24,1.39,2.27,4.6,2.81,5.45a9.17,9.17,0,0,0,3.25,8.78,88.29,88.29,0,0,0,8.89,11.2l.11.11.58.58.14.22,0,0c2.2,2.44,8.42,12.38,10.62,16.09l.31.42c.47.9,1,1.89,1.5,2.93,1.73,3.29,3.16,6.14,4.31,8.58.4.8.75,1.54,1.06,2.18h.54a16,16,0,0,1,1.05,2.47s2.89,6.42,2.37,8.23,20,14,25.94,10.11c0,0,2-11.93,4-20.82H176c.47-2,1-3.87,1.45-5.33Z"/><path class="cls-2" d="M112,199.43l-.12-.18-.64-1c0,.12,0,.24-.08.36-.06.27-.13.55-.19.82l.71.15.27.05C111.93,199.56,111.94,199.49,112,199.43Z"/><path class="cls-2" d="M112,199.43l-.12-.18-.64-1c0,.12,0,.24-.08.36-.06.27-.13.55-.19.82l.71.15.27.05C111.93,199.56,111.94,199.49,112,199.43Z"/><path class="cls-2" d="M126.1,171.21l.18.31.08.14,0,.06.78-.64a6.16,6.16,0,0,0-.51-.52l-.09.11Z"/><path class="cls-2" d="M126.1,171.21l.18.31.08.14,0,.06.78-.64a6.16,6.16,0,0,0-.51-.52l-.09.11Z"/><path class="cls-1" d="M192.13,181.24l.35-.23h0l-.33.23Z"/><path class="cls-2" d="M192.13,181.24l.35-.23h0l-.33.23Z"/><path class="cls-2" d="M192.13,181.24l.35-.23h0l-.33.23Z"/><path class="cls-1" d="M192.15,190.18l-.54.84c-.07.17-.15.34-.24.52.38-.59,1-1.51,1.57-2.6v0Z"/><path class="cls-2" d="M192.15,190.18l-.54.84c-.07.17-.15.34-.24.52.38-.59,1-1.51,1.57-2.6v0Z"/><path class="cls-2" d="M192.15,190.18l-.54.84c-.07.17-.15.34-.24.52.38-.59,1-1.51,1.57-2.6v0Z"/><path class="cls-1" d="M191.94,181.38l.19-.14h0l.33-.23a5,5,0,0,0-.5-.38l-.4.63a.71.71,0,0,1,.09.07h.06Z"/><path class="cls-2" d="M191.94,181.38l.19-.14h0l.33-.23a5,5,0,0,0-.5-.38l-.4.63a.71.71,0,0,1,.09.07h.06Z"/><path class="cls-2" d="M191.94,181.38l.19-.14h0l.33-.23a5,5,0,0,0-.5-.38l-.4.63a.71.71,0,0,1,.09.07h.06Z"/><path class="cls-2" d="M191.94,181.38l.19-.14h0l.33-.23a5,5,0,0,0-.5-.38l-.4.63a.71.71,0,0,1,.09.07h.06Z"/><path class="cls-1" d="M191.19,191.87l.65.37a8.81,8.81,0,0,0,1.1-3.3c-.6,1.09-1.19,2-1.57,2.6C191.31,191.65,191.26,191.76,191.19,191.87Z"/><path class="cls-2" d="M191.19,191.87l.65.37a8.81,8.81,0,0,0,1.1-3.3c-.6,1.09-1.19,2-1.57,2.6C191.31,191.65,191.26,191.76,191.19,191.87Z"/><path class="cls-2" d="M191.19,191.87l.65.37a8.81,8.81,0,0,0,1.1-3.3c-.6,1.09-1.19,2-1.57,2.6C191.31,191.65,191.26,191.76,191.19,191.87Z"/><path class="cls-2" d="M191.19,191.87l.65.37a8.81,8.81,0,0,0,1.1-3.3c-.6,1.09-1.19,2-1.57,2.6C191.31,191.65,191.26,191.76,191.19,191.87Z"/><path class="cls-2" d="M128.36,161.41a.45.45,0,0,1-.16.31l.11.13C128.33,161.7,128.35,161.56,128.36,161.41Z"/><path class="cls-2" d="M128.36,161.41a.45.45,0,0,1-.16.31l.11.13C128.33,161.7,128.35,161.56,128.36,161.41Z"/><path class="cls-2" d="M128.06,161.56l.05-.22.5,0,0-.54-.5,0a.64.64,0,0,0-.73.54c0,.15,0,.29,0,.43.31-.13.54-.21.69-.26Z"/><path class="cls-2" d="M128.06,161.56l.05-.22.5,0,0-.54-.5,0a.64.64,0,0,0-.73.54c0,.15,0,.29,0,.43.31-.13.54-.21.69-.26Z"/><path class="cls-2" d="M121.87,166.4a.14.14,0,0,1,0-.06l-.41-.37a.77.77,0,0,0-.68.21l-.07.32-.12-.08.15.7a.62.62,0,0,0,.34.09l.09,0Zm-.46.37-.1-.08h0Zm-.24-.22,0,0h0l0,0Zm-.09,0v0l-.17,0h0Z"/><path class="cls-2" d="M121.87,166.4a.14.14,0,0,1,0-.06l-.41-.37a.77.77,0,0,0-.68.21l-.07.32-.12-.08.15.7a.62.62,0,0,0,.34.09l.09,0Zm-.46.37-.1-.08h0Zm-.24-.22,0,0h0l0,0Zm-.09,0v0l-.17,0h0Z"/><path class="cls-1" d="M195.19,181.92a7.71,7.71,0,0,1-.05,1.52,6,6,0,0,0,.05-2.49A4.49,4.49,0,0,1,195.19,181.92Z"/><path class="cls-2" d="M195.19,181.92a7.71,7.71,0,0,1-.05,1.52,6,6,0,0,0,.05-2.49A4.49,4.49,0,0,1,195.19,181.92Z"/><path class="cls-2" d="M195.19,181.92a7.71,7.71,0,0,1-.05,1.52,6,6,0,0,0,.05-2.49A4.49,4.49,0,0,1,195.19,181.92Z"/><path class="cls-1" d="M195.14,183.44c0,.22-.06.44-.1.65a4,4,0,0,0,.32-.38,4.35,4.35,0,0,0,.31-3.84l-.69.28a3.62,3.62,0,0,1,.21.8A6,6,0,0,1,195.14,183.44Z"/><path class="cls-2" d="M195.14,183.44c0,.22-.06.44-.1.65a4,4,0,0,0,.32-.38,4.35,4.35,0,0,0,.31-3.84l-.69.28a3.62,3.62,0,0,1,.21.8A6,6,0,0,1,195.14,183.44Z"/><path class="cls-2" d="M195.14,183.44c0,.22-.06.44-.1.65a4,4,0,0,0,.32-.38,4.35,4.35,0,0,0,.31-3.84l-.69.28a3.62,3.62,0,0,1,.21.8A6,6,0,0,1,195.14,183.44Z"/><path class="cls-2" d="M195.14,183.44c0,.22-.06.44-.1.65a4,4,0,0,0,.32-.38,4.35,4.35,0,0,0,.31-3.84l-.69.28a3.62,3.62,0,0,1,.21.8A6,6,0,0,1,195.14,183.44Z"/><path class="cls-1" d="M127.7,196.41a35.08,35.08,0,0,1,0-4.69q0-.83.06-1.68a62.83,62.83,0,0,1-1.91,11l-.13.28.2.23s1.92,2.38,1.46,4.43a.49.49,0,0,0,.37.6.51.51,0,0,0,.6-.38c.48-2.13-1-4.35-1.48-5.05.21-.71.6-2.34,1-4.32,0-.12-.1-.24-.14-.36Z"/><path class="cls-2" d="M127.7,196.41a35.08,35.08,0,0,1,0-4.69q0-.83.06-1.68a62.83,62.83,0,0,1-1.91,11l-.13.28.2.23s1.92,2.38,1.46,4.43a.49.49,0,0,0,.37.6.51.51,0,0,0,.6-.38c.48-2.13-1-4.35-1.48-5.05.21-.71.6-2.34,1-4.32,0-.12-.1-.24-.14-.36Z"/><path class="cls-1" d="M124.17,181.29c-1.46.59-2.22,3.88-3.59,9.86-.26,1.12-.53,2.32-.82,3.53-3.53,9.19-1.71,11.87-1.49,12.15a.49.49,0,0,0,.38.18.5.5,0,0,0,.41-.8s-1.7-2.51,1.66-11.24c.3-1.27.58-2.47.83-3.59.07-.3.14-.59.2-.87h-.21l0-1a1.62,1.62,0,0,0,.44-.07c.92-3.95,1.7-6.89,2.55-7.24a.32.32,0,0,1,.21,0v-.27l.33,0,.38-.46A1.41,1.41,0,0,0,124.17,181.29Z"/><path class="cls-2" d="M124.17,181.29c-1.46.59-2.22,3.88-3.59,9.86-.26,1.12-.53,2.32-.82,3.53-3.53,9.19-1.71,11.87-1.49,12.15a.49.49,0,0,0,.38.18.5.5,0,0,0,.41-.8s-1.7-2.51,1.66-11.24c.3-1.27.58-2.47.83-3.59.07-.3.14-.59.2-.87h-.21l0-1a1.62,1.62,0,0,0,.44-.07c.92-3.95,1.7-6.89,2.55-7.24a.32.32,0,0,1,.21,0v-.27l.33,0,.38-.46A1.41,1.41,0,0,0,124.17,181.29Z"/><path class="cls-1" d="M128.79,190a20.38,20.38,0,0,0,0-3.43v-.05C128.84,187.63,128.82,188.82,128.79,190Z"/><path class="cls-2" d="M128.79,190a20.38,20.38,0,0,0,0-3.43v-.05C128.84,187.63,128.82,188.82,128.79,190Z"/><path class="cls-1" d="M125.77,182.22h0a4.34,4.34,0,0,1,0,.51l.15.07c.89.4,1.48.67,1.85,3.8C127.63,184.34,127.14,182.52,125.77,182.22Z"/><path class="cls-2" d="M125.77,182.22h0a4.34,4.34,0,0,1,0,.51l.15.07c.89.4,1.48.67,1.85,3.8C127.63,184.34,127.14,182.52,125.77,182.22Z"/><path class="cls-2" d="M125.77,182.22l-.8-.17.12-.15-.33,0v.27a.8.8,0,0,1,.22.1,5.26,5.26,0,0,0,.79.43A4.34,4.34,0,0,0,125.77,182.22Z"/><path class="cls-2" d="M125.77,182.22l-.8-.17.12-.15-.33,0v.27a.8.8,0,0,1,.22.1,5.26,5.26,0,0,0,.79.43A4.34,4.34,0,0,0,125.77,182.22Z"/><path class="cls-2" d="M121.56,189.52l0,1h.21c.09-.36.17-.71.25-1.06A1.62,1.62,0,0,1,121.56,189.52Z"/><path class="cls-2" d="M121.56,189.52l0,1h.21c.09-.36.17-.71.25-1.06A1.62,1.62,0,0,1,121.56,189.52Z"/><path class="cls-1" d="M125.75,181.84c0,.11,0,.24,0,.38h0c1.37.3,1.86,2.12,2,4.38,0,0,0,.06,0,.09a18.65,18.65,0,0,1,0,3.35q0,.86-.06,1.68a35.08,35.08,0,0,0,0,4.69l0,.1c0,.12.1.24.14.36a60.9,60.9,0,0,0,.93-6.86c0-1.19.05-2.38,0-3.48-.42-3.56-1.2-4.09-2.44-4.64a5.86,5.86,0,0,1-.81-.43l0,0-.38.46Z"/><path class="cls-2" d="M125.75,181.84c0,.11,0,.24,0,.38h0c1.37.3,1.86,2.12,2,4.38,0,0,0,.06,0,.09a18.65,18.65,0,0,1,0,3.35q0,.86-.06,1.68a35.08,35.08,0,0,0,0,4.69l0,.1c0,.12.1.24.14.36a60.9,60.9,0,0,0,.93-6.86c0-1.19.05-2.38,0-3.48-.42-3.56-1.2-4.09-2.44-4.64a5.86,5.86,0,0,1-.81-.43l0,0-.38.46Z"/><path class="cls-2" d="M125.75,181.84c0,.11,0,.24,0,.38h0c1.37.3,1.86,2.12,2,4.38,0,0,0,.06,0,.09a18.65,18.65,0,0,1,0,3.35q0,.86-.06,1.68a35.08,35.08,0,0,0,0,4.69l0,.1c0,.12.1.24.14.36a60.9,60.9,0,0,0,.93-6.86c0-1.19.05-2.38,0-3.48-.42-3.56-1.2-4.09-2.44-4.64a5.86,5.86,0,0,1-.81-.43l0,0-.38.46Z"/><path class="cls-2" d="M125.77,182.22c0-.14,0-.27,0-.38l-.66.06-.12.15Z"/><path class="cls-2" d="M125.77,182.22c0-.14,0-.27,0-.38l-.66.06-.12.15Z"/><path class="cls-2" d="M125.77,182.22c0-.14,0-.27,0-.38l-.66.06-.12.15Z"/><path class="cls-2" d="M119,126.9a3.94,3.94,0,0,0-.41-.05l-.07,1s.29,0,.64.1c1.42.3,4.67,1.5,4.81,6.16,0,.1,0,.19,0,.3h1c0-.34,0-.64,0-1A7,7,0,0,0,119,126.9Z"/></svg>